<svg xmlns="http://www.w3.org/2000/svg" width="87" height="78" fill="none" viewBox="0 0 87 78">
  <g filter="url(#a)">
    <path fill="#FF4F44" d="M23.767 48.75c2.71 0 5.015-.948 6.912-2.844 1.897-1.896 2.846-4.198 2.846-6.906 0-2.708-.949-5.01-2.846-6.906-1.897-1.896-4.201-2.844-6.912-2.844-2.71 0-5.014.948-6.911 2.844C14.958 33.99 14.01 36.292 14.01 39c0 2.708.948 5.01 2.846 6.906 1.897 1.896 4.2 2.844 6.911 2.844Zm0 9.75c-5.42 0-10.028-1.896-13.823-5.688C6.149 49.022 4.252 44.418 4.252 39s1.897-10.02 5.692-13.813c3.795-3.791 8.402-5.687 13.823-5.687 4.391 0 8.227 1.246 11.506 3.738 3.28 2.491 5.57 5.579 6.871 9.262h27.24l6.424 6.419-11.384 13-8.131-6.419-6.505 6.5-6.505-6.5h-1.139c-1.355 3.9-3.713 7.042-7.074 9.425-3.361 2.383-7.129 3.575-11.303 3.575Z"/>
  </g>
  <g filter="url(#b)">
    <path fill="#A6D85B" d="M30.705 48.75c2.71 0 5.014-.948 6.911-2.844 1.898-1.896 2.846-4.198 2.846-6.906 0-2.708-.948-5.01-2.846-6.906-1.897-1.896-4.2-2.844-6.911-2.844-2.71 0-5.015.948-6.912 2.844-1.897 1.896-2.846 4.198-2.846 6.906 0 2.708.949 5.01 2.846 6.906 1.897 1.896 4.201 2.844 6.912 2.844Zm0 9.75c-5.421 0-10.029-1.896-13.824-5.688-3.794-3.79-5.691-8.394-5.691-13.812s1.897-10.02 5.691-13.813c3.795-3.791 8.403-5.687 13.824-5.687 4.39 0 8.226 1.246 11.506 3.738 3.28 2.491 5.57 5.579 6.87 9.262h27.24l6.425 6.419-11.384 13L63.23 45.5 56.725 52l-6.505-6.5h-1.138c-1.356 3.9-3.714 7.042-7.075 9.425-3.36 2.383-7.128 3.575-11.302 3.575Z"/>
  </g>
  <path fill="#fff" d="M27.236 48.75c2.71 0 5.014-.948 6.912-2.844 1.897-1.896 2.846-4.198 2.846-6.906 0-2.708-.949-5.01-2.846-6.906-1.898-1.896-4.202-2.844-6.912-2.844s-5.014.948-6.912 2.844c-1.897 1.896-2.846 4.198-2.846 6.906 0 2.708.949 5.01 2.846 6.906 1.898 1.896 4.201 2.844 6.912 2.844Zm0 9.75c-5.42 0-10.029-1.896-13.823-5.688C9.618 49.022 7.72 44.418 7.72 39s1.897-10.02 5.692-13.813c3.794-3.791 8.402-5.687 13.823-5.687 4.391 0 8.226 1.246 11.506 3.738 3.28 2.491 5.57 5.579 6.87 9.262h27.241l6.424 6.419-11.384 13L59.76 45.5 53.256 52l-6.505-6.5h-1.138c-1.355 3.9-3.713 7.042-7.074 9.425-3.361 2.383-7.129 3.575-11.303 3.575Z"/>
  <defs>
    <filter id="a" width="86.061" height="86" x="-3" y="0" color-interpolation-filters="sRGB" filterUnits="userSpaceOnUse">
      <feFlood flood-opacity="0" result="BackgroundImageFix"/>
      <feColorMatrix in="SourceAlpha" result="hardAlpha" values="0 0 0 0 0 0 0 0 0 0 0 0 0 0 0 0 0 0 127 0"/>
      <feOffset dy="4"/>
      <feGaussianBlur stdDeviation="2"/>
      <feComposite in2="hardAlpha" operator="out"/>
      <feColorMatrix values="0 0 0 0 0 0 0 0 0 0 0 0 0 0 0 0 0 0 0.25 0"/>
      <feBlend in2="BackgroundImageFix" result="effect1_dropShadow_5052_871"/>
      <feBlend in="SourceGraphic" in2="effect1_dropShadow_5052_871" result="shape"/>
    </filter>
    <filter id="b" width="86.061" height="86" x="3.938" y="0" color-interpolation-filters="sRGB" filterUnits="userSpaceOnUse">
      <feFlood flood-opacity="0" result="BackgroundImageFix"/>
      <feColorMatrix in="SourceAlpha" result="hardAlpha" values="0 0 0 0 0 0 0 0 0 0 0 0 0 0 0 0 0 0 127 0"/>
      <feOffset dy="4"/>
      <feGaussianBlur stdDeviation="2"/>
      <feComposite in2="hardAlpha" operator="out"/>
      <feColorMatrix values="0 0 0 0 0 0 0 0 0 0 0 0 0 0 0 0 0 0 0.25 0"/>
      <feBlend in2="BackgroundImageFix" result="effect1_dropShadow_5052_871"/>
      <feBlend in="SourceGraphic" in2="effect1_dropShadow_5052_871" result="shape"/>
    </filter>
  </defs>
</svg>
