<svg xmlns="http://www.w3.org/2000/svg" width="85" height="78" fill="none" viewBox="0 0 85 78">
  <path fill="#FF4F44" d="M39.03 35.75c8.132 0 15.044-1.273 20.736-3.819 5.692-2.546 8.538-5.606 8.538-9.181 0-3.575-2.846-6.635-8.538-9.181C54.074 11.023 47.162 9.75 39.03 9.75c-8.132 0-15.043 1.273-20.735 3.819-5.692 2.546-8.538 5.606-8.538 9.181 0 3.575 2.846 6.635 8.538 9.181 5.692 2.546 12.603 3.819 20.735 3.819Zm0 8.125c2.223 0 5.002-.23 8.335-.69a53.643 53.643 0 0 0 9.636-2.235c3.09-1.03 5.746-2.37 7.969-4.022 2.222-1.652 3.334-3.67 3.334-6.053V39c0 2.383-1.112 4.401-3.334 6.053-2.223 1.652-4.879 2.993-7.969 4.022a53.643 53.643 0 0 1-9.636 2.234c-3.333.46-6.112.691-8.334.691-2.223 0-5.001-.23-8.335-.69a53.645 53.645 0 0 1-9.636-2.235c-3.09-1.03-5.746-2.37-7.968-4.022-2.223-1.652-3.334-3.67-3.334-6.053v-8.125c0 2.383 1.111 4.401 3.334 6.053 2.222 1.652 4.879 2.993 7.968 4.022a53.645 53.645 0 0 0 9.636 2.234c3.334.46 6.112.691 8.335.691Zm0 16.25c2.223 0 5.002-.23 8.335-.69a53.643 53.643 0 0 0 9.636-2.235c3.09-1.03 5.746-2.37 7.969-4.022 2.222-1.652 3.334-3.67 3.334-6.053v8.125c0 2.383-1.112 4.401-3.334 6.053-2.223 1.652-4.879 2.993-7.969 4.022a53.643 53.643 0 0 1-9.636 2.234c-3.333.46-6.112.691-8.334.691-2.223 0-5.001-.23-8.335-.69a53.645 53.645 0 0 1-9.636-2.235c-3.09-1.03-5.746-2.37-7.968-4.022-2.223-1.652-3.334-3.67-3.334-6.053v-8.125c0 2.383 1.111 4.401 3.334 6.053 2.222 1.652 4.879 2.993 7.968 4.022a53.645 53.645 0 0 0 9.636 2.234c3.334.46 6.112.691 8.335.691Z"/>
  <path fill="#A6D85B" d="M45.968 35.75c8.132 0 15.043-1.273 20.735-3.819 5.692-2.546 8.538-5.606 8.538-9.181 0-3.575-2.846-6.635-8.538-9.181C61.011 11.023 54.1 9.75 45.968 9.75c-8.131 0-15.043 1.273-20.735 3.819-5.692 2.546-8.538 5.606-8.538 9.181 0 3.575 2.846 6.635 8.538 9.181 5.692 2.546 12.604 3.819 20.735 3.819Zm0 8.125c2.223 0 5.001-.23 8.335-.69a53.643 53.643 0 0 0 9.636-2.235c3.09-1.03 5.746-2.37 7.968-4.022 2.223-1.652 3.334-3.67 3.334-6.053V39c0 2.383-1.111 4.401-3.334 6.053-2.222 1.652-4.879 2.993-7.968 4.022a53.643 53.643 0 0 1-9.636 2.234c-3.334.46-6.112.691-8.335.691-2.222 0-5-.23-8.334-.69a53.645 53.645 0 0 1-9.636-2.235c-3.09-1.03-5.746-2.37-7.969-4.022-2.222-1.652-3.334-3.67-3.334-6.053v-8.125c0 2.383 1.112 4.401 3.334 6.053 2.223 1.652 4.879 2.993 7.969 4.022a53.645 53.645 0 0 0 9.636 2.234c3.334.46 6.112.691 8.334.691Zm0 16.25c2.223 0 5.001-.23 8.335-.69a53.643 53.643 0 0 0 9.636-2.235c3.09-1.03 5.746-2.37 7.968-4.022 2.223-1.652 3.334-3.67 3.334-6.053v8.125c0 2.383-1.111 4.401-3.334 6.053-2.222 1.652-4.879 2.993-7.968 4.022a53.643 53.643 0 0 1-9.636 2.234c-3.334.46-6.112.691-8.335.691-2.222 0-5-.23-8.334-.69a53.645 53.645 0 0 1-9.636-2.235c-3.09-1.03-5.746-2.37-7.969-4.022-2.222-1.652-3.334-3.67-3.334-6.053v-8.125c0 2.383 1.112 4.401 3.334 6.053 2.223 1.652 4.879 2.993 7.969 4.022a53.645 53.645 0 0 0 9.636 2.234c3.334.46 6.112.691 8.334.691Z"/>
  <path fill="#fff" d="M41.632 35.75c8.132 0 15.043-1.273 20.735-3.819 5.692-2.546 8.538-5.606 8.538-9.181 0-3.575-2.846-6.635-8.538-9.181-5.692-2.546-12.603-3.819-20.735-3.819-8.131 0-15.043 1.273-20.735 3.819-5.692 2.546-8.538 5.606-8.538 9.181 0 3.575 2.846 6.635 8.538 9.181 5.692 2.546 12.604 3.819 20.735 3.819Zm0 8.125c2.223 0 5.001-.23 8.335-.69a53.643 53.643 0 0 0 9.636-2.235c3.09-1.03 5.746-2.37 7.968-4.022 2.223-1.652 3.334-3.67 3.334-6.053V39c0 2.383-1.111 4.401-3.334 6.053-2.222 1.652-4.878 2.993-7.968 4.022a53.643 53.643 0 0 1-9.636 2.234c-3.334.46-6.112.691-8.335.691-2.222 0-5-.23-8.334-.69a53.643 53.643 0 0 1-9.636-2.235c-3.09-1.03-5.746-2.37-7.969-4.022-2.222-1.652-3.334-3.67-3.334-6.053v-8.125c0 2.383 1.112 4.401 3.334 6.053 2.223 1.652 4.88 2.993 7.969 4.022a53.643 53.643 0 0 0 9.636 2.234c3.334.46 6.112.691 8.334.691Zm0 16.25c2.223 0 5.001-.23 8.335-.69a53.643 53.643 0 0 0 9.636-2.235c3.09-1.03 5.746-2.37 7.968-4.022 2.223-1.652 3.334-3.67 3.334-6.053v8.125c0 2.383-1.111 4.401-3.334 6.053-2.222 1.652-4.878 2.993-7.968 4.022a53.643 53.643 0 0 1-9.636 2.234c-3.334.46-6.112.691-8.335.691-2.222 0-5-.23-8.334-.69a53.643 53.643 0 0 1-9.636-2.235c-3.09-1.03-5.746-2.37-7.969-4.022-2.222-1.652-3.334-3.67-3.334-6.053v-8.125c0 2.383 1.112 4.401 3.334 6.053 2.223 1.652 4.88 2.993 7.969 4.022a53.643 53.643 0 0 0 9.636 2.234c3.334.46 6.112.691 8.334.691Z"/>
</svg>
