<svg xmlns="http://www.w3.org/2000/svg" width="85" height="78" fill="none" viewBox="0 0 85 78">
  <path stroke="#FF4F44" stroke-width="6" d="M70.724 39c0 17.487-14.188 31.667-31.694 31.667S7.336 56.487 7.336 39c0-17.487 14.188-31.667 31.694-31.667S70.724 21.513 70.724 39Z"/>
  <path fill="#FF4F44" d="M32.091 56.333 33.826 44.2h-8.674l15.613-22.533h3.469l-1.735 13.866h10.408l-17.346 20.8h-3.47Z"/>
  <path stroke="#A6D85B" stroke-width="6" d="M77.663 39c0 17.487-14.188 31.667-31.694 31.667S14.275 56.487 14.275 39c0-17.487 14.188-31.667 31.694-31.667S77.663 21.513 77.663 39Z"/>
  <path fill="#A6D85B" d="M39.03 56.333 40.766 44.2h-8.673l15.612-22.533h3.47L49.44 35.533h10.408L42.5 56.333h-3.47Z"/>
  <path stroke="#fff" stroke-width="6" d="M74.192 39c0 17.487-14.187 31.667-31.693 31.667-17.507 0-31.694-14.18-31.694-31.667 0-17.487 14.187-31.667 31.694-31.667 17.506 0 31.693 14.18 31.693 31.667Z"/>
  <path fill="#fff" d="M35.56 56.333 37.295 44.2H28.62l15.612-22.533h3.47l-1.735 13.866h10.408l-17.347 20.8h-3.47Z"/>
</svg>
