<svg xmlns="http://www.w3.org/2000/svg" width="44" height="44" fill="none" viewBox="0 0 44 44">
  <g clip-path="url(#a)">
    <path fill="#E5F4FD" d="M0 22C0 9.85 9.85 0 22 0s22 9.85 22 22-9.85 22-22 22S0 34.15 0 22Z"/>
    <g clip-path="url(#b)">
      <path fill="#2D374B" d="m25.122 20.777 2.12-3.538 5.716 8.754.003 1.68-.019-11.56a.868.868 0 0 0-.41-.694l-10.29-5.82a.92.92 0 0 0-.878.055l-.036.023-9.988 5.691-.039.018a.867.867 0 0 0-.516.74l.016 9.42 5.324-8.115c.67-1.076 2.13-1.422 3.486-1.403l1.591.04-9.375 14.785 1.105.626 9.487-15.395 4.194-.015-9.463 15.783 3.944 2.23.47.267c.2.08.435.084.636.013l10.435-5.947-1.995 1.137-5.518-8.775Zm.809 11.458-3.983-6.147 2.431-4.057 5.231 8.108-3.679 2.096Z"/>
      <path fill="#28A0F0" d="m21.947 26.088 3.983 6.147 3.68-2.096-5.231-8.108-2.432 4.057Zm11.013 1.585-.003-1.68-5.715-8.754-2.12 3.538 5.517 8.775 1.995-1.137a.865.865 0 0 0 .326-.633v-.11Z"/>
      <path fill="#fff" d="m9.01 29.257 2.817 1.596 9.375-14.784-1.591-.041c-1.356-.02-2.816.327-3.486 1.403L10.8 25.545l-1.79 2.706v1.006Zm17.602-13.188-4.193.015-9.487 15.395 3.316 1.877.901-1.504 9.463-15.783Z"/>
      <path fill="#96BEDC" d="M34.728 16.048a2.619 2.619 0 0 0-1.254-2.112L23.05 8.041a2.753 2.753 0 0 0-2.392 0c-.087.043-10.138 5.775-10.138 5.775a2.784 2.784 0 0 0-.399.232 2.595 2.595 0 0 0-1.11 1.994v12.21l1.79-2.707-.015-9.42a.865.865 0 0 1 .369-.655c.047-.033 10.27-5.852 10.302-5.868a.92.92 0 0 1 .786-.003l10.29 5.82c.244.152.397.41.41.694v11.67a.845.845 0 0 1-.307.632l-1.995 1.137-1.03.587-3.68 2.096-3.73 2.127a.919.919 0 0 1-.636-.013l-4.414-2.496-.902 1.503 3.967 2.247.344.19c.149.083.25.138.286.155.282.134.688.213 1.053.213.335 0 .662-.06.971-.18l10.838-6.172a2.592 2.592 0 0 0 1.02-1.963V16.048Z"/>
    </g>
  </g>
  <defs>
    <clipPath id="a">
      <path fill="#fff" d="M0 0h44v44H0z"/>
    </clipPath>
    <clipPath id="b">
      <path fill="#fff" d="M0 0h25.667v28.417H0z" transform="translate(9.166 7.792)"/>
    </clipPath>
  </defs>
</svg>