<svg xmlns="http://www.w3.org/2000/svg" width="119" height="50" fill="none" viewBox="0 0 119 50">
  <g clip-path="url(#a)">
    <path fill="#fff" d="M10.458 48.633c-.037 0-.069 0-.096-.01a.503.503 0 0 0-.095-.011c-.07 0-.24.07-.507.218-.266.147-.607.31-1.017.49-.41.18-.874.337-1.396.473a6.49 6.49 0 0 1-1.641.202 7.886 7.886 0 0 1-2.158-.294 5.352 5.352 0 0 1-1.827-.904 4.474 4.474 0 0 1-1.257-1.52C.154 46.675 0 45.96 0 45.15c0-.811.155-1.508.464-2.123.309-.61.73-1.127 1.257-1.54a5.453 5.453 0 0 1 1.827-.932 7.445 7.445 0 0 1 2.158-.31c.607 0 1.156.049 1.646.147.49.098.922.201 1.29.31.367.11.66.212.873.31.213.098.347.147.395.147.058 0 .111-.032.149-.092.037-.06.074-.109.096-.147l.266.218-1.39 2.205-.176-.125c0-.039 0-.071-.011-.11-.005-.038-.016-.076-.027-.125-.02-.136-.143-.272-.357-.408a3.531 3.531 0 0 0-.793-.376 7.623 7.623 0 0 0-.997-.272 4.972 4.972 0 0 0-.97-.109c-.5 0-.974.071-1.432.218a3.61 3.61 0 0 0-1.194.637 3.05 3.05 0 0 0-.81 1.029 3.09 3.09 0 0 0-.303 1.394c0 .522.1.985.303 1.394.203.408.474.75.81 1.028.341.278.735.49 1.194.637.458.147.937.218 1.433.218a5.46 5.46 0 0 0 1.193-.136 7.065 7.065 0 0 0 1.14-.348c.347-.142.634-.3.863-.474.235-.174.347-.343.347-.5a.332.332 0 0 0-.07-.219l.25-.147 1.178 1.928-.144.147v.01Zm12.669-7.611c0-.217-.133-.326-.394-.326v-.327h2.744v.327a.334.334 0 0 0-.224.082c-.064.054-.096.136-.096.244v8.265c0 .109.032.19.096.245a.334.334 0 0 0 .224.082v.326h-2.744v-.326c.261 0 .394-.11.394-.327v-3.425H17.39v3.425c0 .109.032.19.096.245a.334.334 0 0 0 .224.082v.326h-2.69v-.326c.223 0 .34-.11.34-.327v-8.265c0-.217-.111-.326-.34-.326v-.327h2.69v.327a.334.334 0 0 0-.224.082c-.064.054-.096.136-.096.244v3.098h5.738v-3.098Zm13.006-.652c.57 0 1.087.054 1.55.152a3.46 3.46 0 0 1 1.194.49c.33.223.586.517.767.876.181.36.266.8.266 1.318 0 .8-.234 1.415-.692 1.84-.464.424-1.087.708-1.87.855l2.37 3.457c.086.12.182.196.294.217.111.022.218.038.309.038v.327h-3.33v-.326a.631.631 0 0 0 .277-.055c.08-.038.117-.087.117-.147s-.021-.13-.07-.207a5.067 5.067 0 0 0-.212-.316l-1.96-2.842h-2.547v3.24c0 .109.037.19.117.245.074.054.218.082.42.082v.326H30.05v-.326c.346 0 .517-.11.517-.327v-8.265c0-.217-.17-.326-.517-.326v-.327h6.095-.01Zm-.463 4.262c.426 0 .783-.033 1.07-.098.288-.065.512-.158.677-.283a1.05 1.05 0 0 0 .357-.43c.07-.163.107-.343.107-.54a1.37 1.37 0 0 0-.107-.538 1.078 1.078 0 0 0-.357-.43 1.885 1.885 0 0 0-.677-.283 4.902 4.902 0 0 0-1.07-.098h-3.085v2.694h3.085v.006Zm14.166-4.372c.655 0 1.316.098 1.998.3.676.201 1.294.5 1.854.903s1.017.91 1.374 1.52c.357.615.533 1.339.533 2.177 0 .839-.176 1.563-.532 2.178a4.778 4.778 0 0 1-1.375 1.519 5.724 5.724 0 0 1-1.854.876 7.772 7.772 0 0 1-1.998.273 7.771 7.771 0 0 1-1.998-.273 5.613 5.613 0 0 1-1.854-.876 4.814 4.814 0 0 1-1.37-1.52c-.35-.609-.532-1.339-.532-2.177 0-.838.176-1.562.533-2.178a4.885 4.885 0 0 1 1.369-1.519 6.146 6.146 0 0 1 1.854-.903 6.975 6.975 0 0 1 1.998-.3Zm0 1.677c-.453 0-.9.07-1.353.218a4.13 4.13 0 0 0-1.22.626 3.27 3.27 0 0 0-.885 1.013 2.759 2.759 0 0 0-.34 1.366c0 .512.111.964.34 1.367.224.402.522.735.885 1.012.362.272.767.485 1.22.626a4.311 4.311 0 0 0 2.706 0 4.132 4.132 0 0 0 1.22-.626 3.27 3.27 0 0 0 .885-1.012c.223-.403.335-.855.335-1.367s-.112-.963-.335-1.366a3.264 3.264 0 0 0-.885-1.013 4.005 4.005 0 0 0-1.22-.626 4.341 4.341 0 0 0-1.353-.218Zm9.919 7.676a.407.407 0 0 0 .25-.081c.07-.055.107-.136.107-.245v-8.303c0-.109-.037-.185-.106-.228a.465.465 0 0 0-.25-.066v-.326h3.33v.326a.364.364 0 0 0-.187.055.18.18 0 0 0-.096.163c0 .06.021.142.069.234.048.098.101.202.16.31l2.547 4.737 2.568-4.677a6.37 6.37 0 0 0 .186-.375.6.6 0 0 0 .064-.245c0-.136-.08-.202-.235-.202v-.326h3.298v.326a.479.479 0 0 0-.25.066c-.075.043-.107.12-.107.228v8.303c0 .109.038.19.107.245.07.054.154.081.25.081v.327h-2.797v-.327c.32 0 .48-.108.48-.326v-6.043h-.037l-3.58 6.702h-.054l-3.511-6.719h-.037v6.065c0 .218.165.327.5.327v.327H59.75v-.327l.005-.006Zm15.078 0a.515.515 0 0 0 .368-.24c.09-.135.175-.282.255-.456l3.298-7.083c.085-.158.155-.305.224-.436a.846.846 0 0 0 .096-.343c0-.12-.043-.207-.123-.256a.95.95 0 0 0-.266-.109v-.326h3.01v.326c-.085.022-.165.06-.25.098-.085.038-.123.131-.123.267 0 .098.022.196.064.289.043.098.107.223.187.38l3.708 7.41a.63.63 0 0 0 .24.294c.1.06.218.12.346.18v.327h-3.138v-.327a.374.374 0 0 0 .175-.054c.07-.039.107-.093.107-.164 0-.12-.048-.277-.144-.473l-.676-1.345h-4.348l-.64 1.296c-.116.255-.175.435-.175.544 0 .136.112.201.336.201v.327h-2.531v-.327Zm6.718-3.386-1.497-3.386-1.673 3.386h3.17Zm12.664 3.06c0 .218.128.327.395.327v.326h-2.744v-.326c.085 0 .16-.028.224-.082.064-.055.096-.136.096-.245V42.04h-2.941a.585.585 0 0 0-.31.092c-.1.06-.148.174-.148.348h-.32v-2.547h.32c0 .168.047.283.149.348a.6.6 0 0 0 .309.093h7.911a.54.54 0 0 0 .31-.093c.1-.06.149-.174.149-.348h.32v2.547h-.32c0-.168-.048-.283-.15-.348a.6.6 0 0 0-.309-.093h-2.94v7.247Zm7.342.327c.309 0 .463-.11.463-.327v-8.265c0-.217-.154-.326-.463-.326v-.327h2.957v.327c-.309 0-.464.109-.464.326v8.265c0 .218.155.327.464.327v.326h-2.957v-.326Zm17.299-.981c-.038 0-.069 0-.096-.01a.523.523 0 0 0-.096-.011c-.069 0-.24.07-.506.218-.267.147-.608.31-1.018.49a9.34 9.34 0 0 1-1.396.473 6.485 6.485 0 0 1-1.641.202 7.882 7.882 0 0 1-2.157-.294 5.354 5.354 0 0 1-1.828-.904 4.478 4.478 0 0 1-1.257-1.52c-.309-.603-.464-1.317-.464-2.128 0-.811.155-1.508.464-2.123.309-.61.73-1.127 1.257-1.54a5.458 5.458 0 0 1 1.828-.932 7.44 7.44 0 0 1 2.157-.31 8.43 8.43 0 0 1 1.647.147c.49.098.921.201 1.289.31.368.11.661.212.874.31.213.098.346.147.394.147.059 0 .112-.032.149-.092.037-.06.075-.109.096-.147l.266.218-1.39 2.205-.176-.125c0-.039 0-.071-.011-.11-.005-.038-.016-.076-.026-.125-.021-.136-.144-.272-.357-.408a3.538 3.538 0 0 0-.794-.376 7.632 7.632 0 0 0-.996-.272 4.938 4.938 0 0 0-.97-.109c-.501 0-.975.071-1.433.218-.458.147-.858.36-1.193.637a3.044 3.044 0 0 0-1.114 2.423c0 .522.101.985.304 1.394.202.408.474.75.81 1.028.341.278.735.49 1.193.637a4.67 4.67 0 0 0 1.433.218c.378 0 .778-.043 1.194-.136a7.103 7.103 0 0 0 1.14-.348c.346-.142.634-.3.863-.474.229-.174.346-.343.346-.5a.332.332 0 0 0-.069-.219l.25-.147L119 48.476l-.144.147v.01ZM74.002 29.644l-6.169-3.724V3.724L74.003 0v29.644Zm-7.581 0V0l-5.114 4.775v20.089l5.114 4.78Zm-6.527 0V0l-3.83 5.564v18.51l3.83 5.57Zm-5.774 0-2.052-6.272V6.266L54.12 0v29.644Zm-4.54 0V0l-1.108 6.849v15.946l1.108 6.849Zm-4.582-7.415.986 7.415V0l-.986 7.41v14.819Z"/>
  </g>
  <defs>
    <clipPath id="a">
      <path fill="#fff" d="M0 0h119v50H0z"/>
    </clipPath>
  </defs>
</svg>