<svg xmlns="http://www.w3.org/2000/svg" width="51" height="48" fill="none" viewBox="0 0 51 48">
  <path fill="#A6D85B" d="M8.875 26.25c0-1.242.987-2.25 2.203-2.25h4.406c1.217 0 2.204 1.008 2.204 2.25v13.5c0 1.242-.987 2.25-2.204 2.25h-4.406a2.18 2.18 0 0 1-1.558-.659 2.275 2.275 0 0 1-.645-1.591v-13.5Zm14.219-9c0-1.242.987-2.25 2.203-2.25h4.406c1.216 0 2.203 1.008 2.203 2.25v22.5c0 1.242-.987 2.25-2.203 2.25h-4.406a2.18 2.18 0 0 1-1.558-.659 2.275 2.275 0 0 1-.645-1.591v-22.5Zm14.218-9c0-1.242.988-2.25 2.204-2.25h4.406c1.216 0 2.203 1.008 2.203 2.25v31.5c0 1.242-.987 2.25-2.203 2.25h-4.406a2.18 2.18 0 0 1-1.558-.659 2.275 2.275 0 0 1-.645-1.591V8.25Z"/>
  <path fill="#FF4F44" d="M4.875 26.25c0-1.242.987-2.25 2.203-2.25h4.406c1.216 0 2.204 1.008 2.204 2.25v13.5c0 1.242-.988 2.25-2.204 2.25H7.078a2.18 2.18 0 0 1-1.558-.659 2.275 2.275 0 0 1-.645-1.591v-13.5Zm14.219-9c0-1.242.987-2.25 2.203-2.25h4.406c1.216 0 2.203 1.008 2.203 2.25v22.5c0 1.242-.987 2.25-2.203 2.25h-4.406a2.18 2.18 0 0 1-1.558-.659 2.275 2.275 0 0 1-.645-1.591v-22.5Zm14.218-9c0-1.242.988-2.25 2.204-2.25h4.406c1.216 0 2.203 1.008 2.203 2.25v31.5c0 1.242-.987 2.25-2.203 2.25h-4.406a2.18 2.18 0 0 1-1.558-.659 2.275 2.275 0 0 1-.645-1.591V8.25Z"/>
  <path fill="#fff" d="M6.875 26.25c0-1.242.987-2.25 2.203-2.25h4.406c1.216 0 2.204 1.008 2.204 2.25v13.5c0 1.242-.988 2.25-2.204 2.25H9.078a2.18 2.18 0 0 1-1.558-.659 2.275 2.275 0 0 1-.645-1.591v-13.5Zm14.219-9c0-1.242.987-2.25 2.203-2.25h4.406c1.216 0 2.203 1.008 2.203 2.25v22.5c0 1.242-.987 2.25-2.203 2.25h-4.406a2.18 2.18 0 0 1-1.558-.659 2.275 2.275 0 0 1-.645-1.591v-22.5Zm14.218-9c0-1.242.988-2.25 2.204-2.25h4.406c1.216 0 2.203 1.008 2.203 2.25v31.5c0 1.242-.987 2.25-2.203 2.25h-4.406a2.18 2.18 0 0 1-1.558-.659 2.275 2.275 0 0 1-.645-1.591V8.25Z"/>
</svg>
