<svg xmlns="http://www.w3.org/2000/svg" width="52" height="49" fill="none" viewBox="0 0 52 49">
  <path fill="#A6D85B" d="M9.4 35.75c-.4-.4-.591-.875-.575-1.425.017-.55.209-1.008.575-1.375l10.55-10.7c.767-.767 1.717-1.15 2.85-1.15 1.134 0 2.084.383 2.85 1.15l5.15 5.2 10.4-10.3H38c-.566 0-1.041-.192-1.425-.575-.383-.383-.575-.858-.575-1.425 0-.567.192-1.042.575-1.425.384-.383.859-.575 1.425-.575h8c.567 0 1.042.192 1.425.575.384.383.575.858.575 1.425v8c0 .567-.191 1.042-.575 1.425-.383.383-.858.575-1.425.575-.566 0-1.041-.192-1.425-.575-.383-.383-.575-.858-.575-1.425v-3.2L33.65 30.3c-.766.767-1.716 1.15-2.85 1.15-1.133 0-2.083-.383-2.85-1.15l-5.15-5.15-10.6 10.6c-.366.367-.833.55-1.4.55-.566 0-1.033-.183-1.4-.55Z"/>
  <path fill="#FF4F44" d="M5.4 35.75c-.4-.4-.591-.875-.575-1.425.017-.55.209-1.008.575-1.375l10.55-10.7c.767-.767 1.717-1.15 2.85-1.15 1.134 0 2.084.383 2.85 1.15l5.15 5.2 10.4-10.3H34c-.566 0-1.041-.192-1.425-.575-.383-.383-.575-.858-.575-1.425 0-.567.192-1.042.575-1.425.384-.383.859-.575 1.425-.575h8c.567 0 1.042.192 1.425.575.384.383.575.858.575 1.425v8c0 .567-.191 1.042-.575 1.425-.383.383-.858.575-1.425.575-.566 0-1.041-.192-1.425-.575-.383-.383-.575-.858-.575-1.425v-3.2L29.65 30.3c-.766.767-1.716 1.15-2.85 1.15-1.133 0-2.083-.383-2.85-1.15l-5.15-5.15-10.6 10.6c-.366.367-.833.55-1.4.55-.566 0-1.033-.183-1.4-.55Z"/>
  <path fill="#fff" d="M7.4 35.75c-.4-.4-.591-.875-.575-1.425.017-.55.209-1.008.575-1.375l10.55-10.7c.767-.767 1.717-1.15 2.85-1.15 1.134 0 2.084.383 2.85 1.15l5.15 5.2 10.4-10.3H36c-.566 0-1.041-.192-1.425-.575-.383-.383-.575-.858-.575-1.425 0-.567.192-1.042.575-1.425.384-.383.859-.575 1.425-.575h8c.567 0 1.042.192 1.425.575.384.383.575.858.575 1.425v8c0 .567-.191 1.042-.575 1.425-.383.383-.858.575-1.425.575-.566 0-1.041-.192-1.425-.575-.383-.383-.575-.858-.575-1.425v-3.2L31.65 30.3c-.766.767-1.716 1.15-2.85 1.15-1.133 0-2.083-.383-2.85-1.15l-5.15-5.15-10.6 10.6c-.366.367-.833.55-1.4.55-.566 0-1.033-.183-1.4-.55Z"/>
</svg>
